<mxfile host="drawio-plugin" modified="2024-11-28T05:48:44.473Z" agent="5.0 (Windows NT 6.2; Win64; x64) AppleWebKit/537.36 (KHTML, like Gecko) Chrome/89.0.4389.90 Safari/537.36" etag="3Dr5I8YsjSvlYw4EZT1t" version="20.5.3" type="embed"><diagram id="23iRSUPoRavnBvh4doch" name="Page-1"><mxGraphModel dx="1062" dy="519" grid="1" gridSize="10" guides="1" tooltips="1" connect="1" arrows="1" fold="1" page="1" pageScale="1" pageWidth="827" pageHeight="1169" math="0" shadow="0"><root><mxCell id="0"/><mxCell id="1" parent="0"/><mxCell id="99" value="0.0.1" style="ellipse;whiteSpace=wrap;html=1;aspect=fixed;fillColor=#dae8fc;strokeColor=#6c8ebf;fontStyle=1;labelPosition=center;verticalLabelPosition=top;align=center;verticalAlign=bottom;fontColor=#0066CC;" vertex="1" parent="1"><mxGeometry x="460" y="70" width="20" height="20" as="geometry"/></mxCell><mxCell id="100" value="default" style="text;html=1;strokeColor=#6C8EBF;fillColor=#dae8fc;align=center;verticalAlign=middle;whiteSpace=wrap;rounded=0;fontSize=10;fontStyle=1" vertex="1" parent="1"><mxGeometry x="830" y="70" width="90" height="20" as="geometry"/></mxCell><mxCell id="101" value="ACU35-cloud" style="text;html=1;strokeColor=#b85450;fillColor=#f8cecc;align=center;verticalAlign=middle;whiteSpace=wrap;rounded=0;fontSize=10;fontStyle=1" vertex="1" parent="1"><mxGeometry x="830" y="160" width="90" height="20" as="geometry"/></mxCell><mxCell id="102" value="ACU35-x40m" style="text;html=1;strokeColor=#82B366;fillColor=#d5e8d4;align=center;verticalAlign=middle;whiteSpace=wrap;rounded=0;fontSize=10;fontStyle=1" vertex="1" parent="1"><mxGeometry x="830" y="250" width="90" height="20" as="geometry"/></mxCell><mxCell id="103" value="" style="endArrow=none;dashed=1;html=1;fillColor=#dae8fc;strokeColor=#6c8ebf;entryX=0;entryY=0.5;entryDx=0;entryDy=0;" edge="1" parent="1" source="99" target="100"><mxGeometry width="50" height="50" relative="1" as="geometry"><mxPoint x="59.9999999999917" y="80" as="sourcePoint"/><mxPoint x="649.9999999999918" y="80" as="targetPoint"/><Array as="points"/></mxGeometry></mxCell><mxCell id="104" value="Player-cloud" style="text;html=1;strokeColor=#9673a6;fillColor=#e1d5e7;align=center;verticalAlign=middle;whiteSpace=wrap;rounded=0;fontSize=10;fontStyle=1" vertex="1" parent="1"><mxGeometry x="830" y="340" width="90" height="20" as="geometry"/></mxCell><mxCell id="105" value="player-cloud-dahao" style="text;html=1;strokeColor=#666666;fillColor=#f5f5f5;align=center;verticalAlign=middle;whiteSpace=wrap;rounded=0;fontColor=#333333;fontSize=10;fontStyle=1" vertex="1" parent="1"><mxGeometry x="830" y="430" width="90" height="20" as="geometry"/></mxCell><mxCell id="106" value="&lt;font color=&quot;#b85450&quot;&gt;0.0.1&lt;/font&gt;" style="ellipse;whiteSpace=wrap;html=1;aspect=fixed;fillColor=#F8CECC;strokeColor=#B85450;fontStyle=1;labelPosition=center;verticalLabelPosition=top;align=center;verticalAlign=bottom;" vertex="1" parent="1"><mxGeometry x="530" y="160" width="20" height="20" as="geometry"/></mxCell><mxCell id="107" value="&lt;font color=&quot;#b85450&quot;&gt;1.51.10&lt;/font&gt;" style="ellipse;whiteSpace=wrap;html=1;aspect=fixed;fillColor=#F8CECC;strokeColor=#B85450;fontStyle=1;labelPosition=center;verticalLabelPosition=top;align=center;verticalAlign=bottom;" vertex="1" parent="1"><mxGeometry x="650" y="160" width="20" height="20" as="geometry"/></mxCell><mxCell id="108" value="&lt;font style=&quot;font-size: 7px;&quot; color=&quot;#b85450&quot;&gt;&lt;span style=&quot;text-wrap-mode: nowrap;&quot;&gt;监控配置&lt;/span&gt;&lt;/font&gt;" style="shape=document;whiteSpace=wrap;html=1;boundedLbl=1;strokeColor=#B85450;" vertex="1" parent="1"><mxGeometry x="990" y="150.63" width="77.5" height="38.75" as="geometry"/></mxCell><mxCell id="109" value="&lt;font color=&quot;#82b366&quot;&gt;0.0.1&lt;/font&gt;" style="ellipse;whiteSpace=wrap;html=1;aspect=fixed;fillColor=#d5e8d4;strokeColor=#82b366;fontStyle=1;labelPosition=center;verticalLabelPosition=top;align=center;verticalAlign=bottom;" vertex="1" parent="1"><mxGeometry x="530" y="250" width="20" height="20" as="geometry"/></mxCell><mxCell id="110" value="&lt;font color=&quot;#82b366&quot;&gt;1.51.10&lt;/font&gt;" style="ellipse;whiteSpace=wrap;html=1;aspect=fixed;fillColor=#d5e8d4;strokeColor=#82b366;fontStyle=1;labelPosition=center;verticalLabelPosition=top;align=center;verticalAlign=bottom;" vertex="1" parent="1"><mxGeometry x="650" y="250" width="20" height="20" as="geometry"/></mxCell><mxCell id="111" value="&lt;font color=&quot;#6c8ebf&quot;&gt;&lt;span style=&quot;font-size: 7px; text-wrap-mode: nowrap;&quot;&gt;无配置&lt;/span&gt;&lt;/font&gt;" style="shape=document;whiteSpace=wrap;html=1;boundedLbl=1;strokeColor=#6C8EBF;" vertex="1" parent="1"><mxGeometry x="990" y="60.629999999999995" width="77.5" height="38.75" as="geometry"/></mxCell><mxCell id="112" value="&lt;font color=&quot;#82b366&quot; style=&quot;font-size: 7px;&quot;&gt;&lt;span style=&quot;text-wrap-mode: nowrap;&quot;&gt;监控配置&lt;/span&gt;&lt;/font&gt;" style="shape=document;whiteSpace=wrap;html=1;boundedLbl=1;strokeColor=#82B366;" vertex="1" parent="1"><mxGeometry x="990" y="240.63" width="77.5" height="38.75" as="geometry"/></mxCell><mxCell id="113" style="edgeStyle=orthogonalEdgeStyle;rounded=1;orthogonalLoop=1;jettySize=auto;html=1;dashed=1;endArrow=none;endFill=0;fillColor=#d5e8d4;strokeColor=#B85450;exitX=0.5;exitY=1;exitDx=0;exitDy=0;entryX=0;entryY=0.5;entryDx=0;entryDy=0;" edge="1" parent="1" source="99" target="106"><mxGeometry relative="1" as="geometry"><Array as="points"><mxPoint x="470" y="170"/></Array><mxPoint x="470" y="129.99999999999994" as="sourcePoint"/><mxPoint x="520" y="169.99999999999994" as="targetPoint"/></mxGeometry></mxCell><mxCell id="114" style="edgeStyle=orthogonalEdgeStyle;rounded=1;orthogonalLoop=1;jettySize=auto;html=1;dashed=1;endArrow=none;endFill=0;fontSize=10;fontColor=#FFB570;fillColor=#ffe6cc;strokeColor=#82B366;entryX=0.5;entryY=1;entryDx=0;entryDy=0;exitX=0;exitY=0.5;exitDx=0;exitDy=0;" edge="1" parent="1" source="109" target="99"><mxGeometry relative="1" as="geometry"><Array as="points"/><mxPoint x="500" y="260" as="sourcePoint"/><mxPoint x="485.03" y="220" as="targetPoint"/></mxGeometry></mxCell><mxCell id="115" value="" style="endArrow=none;dashed=1;html=1;fillColor=#dae8fc;strokeColor=#B85450;rounded=0;exitX=1;exitY=0.5;exitDx=0;exitDy=0;entryX=0;entryY=0.5;entryDx=0;entryDy=0;" edge="1" parent="1" source="106" target="107"><mxGeometry width="50" height="50" relative="1" as="geometry"><mxPoint x="570" y="189.99999999999994" as="sourcePoint"/><mxPoint x="1160" y="189.99999999999994" as="targetPoint"/><Array as="points"/></mxGeometry></mxCell><mxCell id="116" value="" style="endArrow=none;dashed=1;html=1;fillColor=#dae8fc;strokeColor=#82B366;rounded=0;entryX=0;entryY=0.5;entryDx=0;entryDy=0;" edge="1" parent="1"><mxGeometry width="50" height="50" relative="1" as="geometry"><mxPoint x="550" y="260" as="sourcePoint"/><mxPoint x="650" y="259.65" as="targetPoint"/><Array as="points"/></mxGeometry></mxCell><mxCell id="117" value="" style="endArrow=none;dashed=1;html=1;fillColor=#dae8fc;strokeColor=#B85450;rounded=0;exitX=1;exitY=0.5;exitDx=0;exitDy=0;entryX=0;entryY=0.5;entryDx=0;entryDy=0;" edge="1" parent="1" target="101"><mxGeometry width="50" height="50" relative="1" as="geometry"><mxPoint x="670" y="169.65" as="sourcePoint"/><mxPoint x="770" y="169.65" as="targetPoint"/><Array as="points"/></mxGeometry></mxCell><mxCell id="118" value="" style="endArrow=none;dashed=1;html=1;fillColor=#dae8fc;strokeColor=#82B366;rounded=0;exitX=1;exitY=0.5;exitDx=0;exitDy=0;entryX=0;entryY=0.5;entryDx=0;entryDy=0;" edge="1" parent="1"><mxGeometry width="50" height="50" relative="1" as="geometry"><mxPoint x="670" y="259.64" as="sourcePoint"/><mxPoint x="830" y="259.99" as="targetPoint"/><Array as="points"/></mxGeometry></mxCell><mxCell id="119" value="&lt;font color=&quot;#9673a6&quot;&gt;0.0.1&lt;/font&gt;" style="ellipse;whiteSpace=wrap;html=1;aspect=fixed;fillColor=#E1D5E7;strokeColor=#9673A6;fontStyle=1;labelPosition=center;verticalLabelPosition=top;align=center;verticalAlign=bottom;" vertex="1" parent="1"><mxGeometry x="530" y="340" width="20" height="20" as="geometry"/></mxCell><mxCell id="120" value="&lt;font style=&quot;font-size: 7px; line-height: 100%;&quot;&gt;&lt;span style=&quot;text-wrap-mode: nowrap;&quot;&gt;监控配置&lt;/span&gt;&lt;/font&gt;&lt;div style=&quot;line-height: 100%;&quot;&gt;&lt;font&gt;&lt;span style=&quot;font-size: 7px; text-wrap-mode: nowrap; line-height: 100%;&quot;&gt;通用除湿&lt;/span&gt;&lt;/font&gt;&lt;/div&gt;" style="shape=document;whiteSpace=wrap;html=1;boundedLbl=1;strokeColor=#9673A6;fontColor=#9673A6;" vertex="1" parent="1"><mxGeometry x="990" y="330.63" width="77.5" height="38.75" as="geometry"/></mxCell><mxCell id="121" value="&lt;font color=&quot;#9673a6&quot;&gt;1.51.10&lt;/font&gt;" style="ellipse;whiteSpace=wrap;html=1;aspect=fixed;fillColor=#E1D5E7;strokeColor=#9673A6;fontStyle=1;labelPosition=center;verticalLabelPosition=top;align=center;verticalAlign=bottom;" vertex="1" parent="1"><mxGeometry x="730" y="340" width="20" height="20" as="geometry"/></mxCell><mxCell id="122" value="增加监控配置" style="text;html=1;align=center;verticalAlign=middle;whiteSpace=wrap;rounded=0;fontSize=8;" vertex="1" parent="1"><mxGeometry x="630" y="110" width="60" height="30" as="geometry"/></mxCell><mxCell id="123" value="增加监控配置" style="text;html=1;align=center;verticalAlign=middle;whiteSpace=wrap;rounded=0;fontSize=8;" vertex="1" parent="1"><mxGeometry x="630" y="200" width="60" height="30" as="geometry"/></mxCell><mxCell id="124" value="增加监控配置" style="text;html=1;align=center;verticalAlign=middle;whiteSpace=wrap;rounded=0;fontSize=8;" vertex="1" parent="1"><mxGeometry x="710" y="290" width="60" height="30" as="geometry"/></mxCell><mxCell id="125" value="&lt;font color=&quot;#9673a6&quot;&gt;1.51.9&lt;/font&gt;" style="ellipse;whiteSpace=wrap;html=1;aspect=fixed;fillColor=#E1D5E7;strokeColor=#9673A6;fontStyle=1;labelPosition=center;verticalLabelPosition=top;align=center;verticalAlign=bottom;" vertex="1" parent="1"><mxGeometry x="630" y="340" width="20" height="20" as="geometry"/></mxCell><mxCell id="126" value="增加信号源切换" style="text;html=1;align=center;verticalAlign=middle;whiteSpace=wrap;rounded=0;fontSize=8;" vertex="1" parent="1"><mxGeometry x="610" y="290" width="60" height="30" as="geometry"/></mxCell><mxCell id="127" style="edgeStyle=orthogonalEdgeStyle;rounded=1;orthogonalLoop=1;jettySize=auto;html=1;dashed=1;endArrow=none;endFill=0;fillColor=#d5e8d4;strokeColor=#9673A6;exitX=0.5;exitY=1;exitDx=0;exitDy=0;entryX=0;entryY=0.5;entryDx=0;entryDy=0;" edge="1" parent="1" source="99" target="119"><mxGeometry relative="1" as="geometry"><Array as="points"><mxPoint x="470" y="350"/></Array><mxPoint x="400" y="319.99999999999994" as="sourcePoint"/><mxPoint x="450" y="359.99999999999994" as="targetPoint"/></mxGeometry></mxCell><mxCell id="128" value="" style="endArrow=none;dashed=1;html=1;fillColor=#dae8fc;strokeColor=#9673A6;rounded=0;entryX=0;entryY=0.5;entryDx=0;entryDy=0;exitX=1;exitY=0.5;exitDx=0;exitDy=0;" edge="1" parent="1" source="119" target="125"><mxGeometry width="50" height="50" relative="1" as="geometry"><mxPoint x="560" y="270" as="sourcePoint"/><mxPoint x="660" y="269.65" as="targetPoint"/><Array as="points"/></mxGeometry></mxCell><mxCell id="129" value="" style="endArrow=none;dashed=1;html=1;fillColor=#dae8fc;strokeColor=#9673A6;rounded=0;entryX=0;entryY=0.5;entryDx=0;entryDy=0;exitX=1;exitY=0.5;exitDx=0;exitDy=0;" edge="1" parent="1"><mxGeometry width="50" height="50" relative="1" as="geometry"><mxPoint x="650" y="349.63" as="sourcePoint"/><mxPoint x="730" y="349.63" as="targetPoint"/><Array as="points"/></mxGeometry></mxCell><mxCell id="130" value="" style="endArrow=none;dashed=1;html=1;fillColor=#dae8fc;strokeColor=#9673A6;rounded=0;entryX=0;entryY=0.5;entryDx=0;entryDy=0;exitX=1;exitY=0.5;exitDx=0;exitDy=0;" edge="1" parent="1"><mxGeometry width="50" height="50" relative="1" as="geometry"><mxPoint x="750" y="349.63" as="sourcePoint"/><mxPoint x="830" y="349.63" as="targetPoint"/><Array as="points"/></mxGeometry></mxCell><mxCell id="131" value="&lt;font color=&quot;#666666&quot;&gt;1.51.10&lt;/font&gt;" style="ellipse;whiteSpace=wrap;html=1;aspect=fixed;fillColor=#F5F5F5;strokeColor=#666666;fontStyle=1;labelPosition=center;verticalLabelPosition=top;align=center;verticalAlign=bottom;" vertex="1" parent="1"><mxGeometry x="710" y="430" width="20" height="20" as="geometry"/></mxCell><mxCell id="132" style="edgeStyle=orthogonalEdgeStyle;rounded=1;orthogonalLoop=1;jettySize=auto;html=1;dashed=1;endArrow=none;endFill=0;fillColor=#d5e8d4;strokeColor=#666666;exitX=0.5;exitY=1;exitDx=0;exitDy=0;entryX=0;entryY=0.5;entryDx=0;entryDy=0;" edge="1" parent="1" source="110" target="131"><mxGeometry relative="1" as="geometry"><Array as="points"><mxPoint x="660" y="440"/></Array><mxPoint x="640" y="409.99999999999994" as="sourcePoint"/><mxPoint x="690" y="449.99999999999994" as="targetPoint"/></mxGeometry></mxCell><mxCell id="133" value="&lt;font style=&quot;font-size: 7px; line-height: 100%;&quot;&gt;&lt;span style=&quot;text-wrap-mode: nowrap;&quot;&gt;监控配置&lt;/span&gt;&lt;/font&gt;&lt;div style=&quot;line-height: 100%;&quot;&gt;&lt;font&gt;&lt;span style=&quot;font-size: 7px; text-wrap-mode: nowrap;&quot;&gt;监控配置主动刷新&lt;/span&gt;&lt;/font&gt;&lt;/div&gt;" style="shape=document;whiteSpace=wrap;html=1;boundedLbl=1;strokeColor=#666666;fontColor=#666666;" vertex="1" parent="1"><mxGeometry x="990" y="420.63" width="77.5" height="38.75" as="geometry"/></mxCell><mxCell id="134" value="" style="endArrow=none;dashed=1;html=1;fillColor=#dae8fc;strokeColor=#666666;rounded=0;exitX=1;exitY=0.5;exitDx=0;exitDy=0;entryX=0;entryY=0.5;entryDx=0;entryDy=0;" edge="1" parent="1" source="131" target="105"><mxGeometry width="50" height="50" relative="1" as="geometry"><mxPoint x="680" y="269.64" as="sourcePoint"/><mxPoint x="840" y="269.99" as="targetPoint"/><Array as="points"/></mxGeometry></mxCell></root></mxGraphModel></diagram></mxfile>